<?xml version="1.0" encoding="UTF-8"?>
<svg id="Layer_1" data-name="Layer 1" xmlns="http://www.w3.org/2000/svg" viewBox="0 0 360 412.4999982119">
  <path d="M170,262.550008893l138.1999969482,77.8000068665,46.8000030518-27.0000076294c2.9999923706-1.8000030518,5-5,5-8.6000061035V108.150203824c0-3.6000061035-2.0000076294-6.8000030518-5-8.6000061035l-46.3999938965-26.799993515-138.6000061035,78.59998703v111.1998176575h0Z" style="fill: #aaa4ec;"/>
  <path d="M140,279.9500066042V133.5498028994L278.4000015259,55.1500016451,185,1.3500005007c-2.9999923706-1.8000006676-7.0000076294-1.8000006676-10,0L5,99.5499974489c-3.0000019073,1.8000030518-5,5-5,8.6000061035v196.1999893188c0,3.6000061035,1.9999980927,6.8000030518,5,8.6000061035l170,98.1999969482c2.9999923706,1.8000030518,7.0000076294,1.8000030518,10,0l92.9999923706-53.6000061035-137.9999923706-77.5999832153h0Z" style="fill: #5548d9;"/>
</svg>